<?xml version="1.0" encoding="UTF-8"?>
<svg width="236px" height="157px" viewBox="0 0 236 157" version="1.1" xmlns="http://www.w3.org/2000/svg" xmlns:xlink="http://www.w3.org/1999/xlink">
    <title>poppetje begeleider</title>
    <defs>
        <path d="M109,75 C106.792,75 105,76.792 105,79 C105,81.208 106.792,83 109,83 C111.208,83 113,81.208 113,79 C113,76.792 111.208,75 109,75 Z M127,75 C124.792,75 123,76.792 123,79 C123,81.208 124.792,83 127,83 C129.208,83 131,81.208 131,79 C131,76.792 129.208,75 127,75 Z M118,45 C100.888,45 87,58.888 87,76 C87,93.112 100.888,107 118,107 C135.112,107 149,93.112 149,76 C149,58.888 135.112,45 118,45 Z M118,101 C104.21875,101 93,89.8995081 93,76.2635278 C93,75.3668306 93.0625,74.4701335 93.15625,73.604357 C100.53125,70.357695 106.375,64.3900211 109.4375,57 C115.09375,64.9156711 124.40625,70.0794097 134.9375,70.0794097 C137.375,70.0794097 139.71875,69.8011244 141.96875,69.2754743 C142.625,71.4708363 143,73.8208011 143,76.2635278 C143,89.8995081 131.78125,101 118,101 Z" id="path-1"></path>
    </defs>
    <g id="poppetje-begeleider" stroke="none" stroke-width="1" fill="none" fill-rule="evenodd">
        <mask id="mask-2" fill="white">
            <use xlink:href="#path-1"></use>
        </mask>
        <use id="icon/action/face_24px" fill="#08B589" fill-rule="nonzero" xlink:href="#path-1"></use>
        <path d="M52,73 C54.209139,73 56,74.790861 56,77 C56,97.7769523 72.6746172,114.659339 93.3716005,114.994909 L94,115 L114.551936,115 C116.761075,115 118.551936,116.790861 118.551936,119 C118.551936,121.142195 116.867967,122.891079 114.751576,122.995105 L114.551936,123 L94,123 C68.5949015,123 48,102.405098 48,77 C48,74.790861 49.790861,73 52,73 Z" id="Path" fill="#08B589" fill-rule="nonzero"></path>
        <rect id="Rectangle" fill="#08B589" x="48" y="67" width="12" height="18" rx="5"></rect>
        <path d="M61.8730216,74.6018585 C62.9213362,73.7033031 64.4995861,73.824707 65.3981415,74.8730216 C66.2576293,75.8757573 66.1839218,77.3633488 65.2584509,78.2771834 L65.1269784,78.3981415 L58.1269784,84.3981415 C57.0786638,85.2966969 55.5004139,85.175293 54.6018585,84.1269784 C53.7423707,83.1242427 53.8160782,81.6366512 54.7415491,80.7228166 L54.8730216,80.6018585 L61.8730216,74.6018585 Z" id="Line-2" fill="#08B589" fill-rule="nonzero"></path>
        <path d="M109.761111,115 L126.238889,115 C133.568984,115 139.96161,119.981051 141.753469,127.088761 L149.294118,157 L149.294118,157 L86.7058824,157 L94.2465308,127.088761 C96.0383905,119.981051 102.431016,115 109.761111,115 Z" id="Rectangle" fill="#08B589"></path>
    </g>
</svg>