<?xml version="1.0" encoding="UTF-8"?>
<svg width="236px" height="157px" viewBox="0 0 236 157" version="1.1" xmlns="http://www.w3.org/2000/svg" xmlns:xlink="http://www.w3.org/1999/xlink">
    <title>poppetje copy 3</title>
    <defs>
        <path d="M65,75 C62.792,75 61,76.792 61,79 C61,81.208 62.792,83 65,83 C67.208,83 69,81.208 69,79 C69,76.792 67.208,75 65,75 Z M83,75 C80.792,75 79,76.792 79,79 C79,81.208 80.792,83 83,83 C85.208,83 87,81.208 87,79 C87,76.792 85.208,75 83,75 Z M70,45 C52.888,45 39,58.888 39,76 C39,93.112 52.888,107 70,107 C87.112,107 101,93.112 101,76 C101,58.888 87.112,45 70,45 Z M70,101 C56.21875,101 45,89.8995081 45,76.2635278 C45,75.3668306 45.0625,74.4701335 45.15625,73.604357 C52.53125,70.357695 58.375,64.3900211 61.4375,57 C67.09375,64.9156711 76.40625,70.0794097 86.9375,70.0794097 C89.375,70.0794097 91.71875,69.8011244 93.96875,69.2754743 C94.625,71.4708363 95,73.8208011 95,76.2635278 C95,89.8995081 83.78125,101 70,101 Z" id="path-1"></path>
    </defs>
    <g id="poppetje-copy-3" stroke="none" stroke-width="1" fill="none" fill-rule="evenodd">
        <line x1="129.833333" y1="130.166667" x2="129.833333" y2="51.8333333" id="Line-3" stroke="#08234E" stroke-width="3" stroke-linecap="round" stroke-linejoin="round"></line>
        <mask id="mask-2" fill="white">
            <use xlink:href="#path-1"></use>
        </mask>
        <use id="icon/action/face_24px" fill="#08234E" fill-rule="nonzero" xlink:href="#path-1"></use>
        <path d="M61.7611114,115 L78.2388886,115 C85.5689843,115 91.9616095,119.981051 93.7534692,127.088761 L101.294118,157 L101.294118,157 L38.7058824,157 L46.2465308,127.088761 C48.0383905,119.981051 54.4310157,115 61.7611114,115 Z" id="Rectangle" fill="#08234E"></path>
        <g id="Flag_of_Belgium" transform="translate(130.000000, 52.000000)" fill-rule="nonzero">
            <polygon id="Path" fill="#EF3340" points="0 0 47 0 47 32 0 32"></polygon>
            <polygon id="Path" fill="#FDDA25" points="0 0 32 0 32 32 0 32"></polygon>
            <polygon id="Path" fill="#000000" points="0 0 15 0 15 32 0 32"></polygon>
        </g>
        <path d="M89.6132421,106.437779 C91.8223811,106.437779 93.6132421,108.22864 93.6132421,110.437779 C93.6132421,123.441454 107.751375,134.437779 125.613242,134.437779 C127.822381,134.437779 129.613242,136.22864 129.613242,138.437779 C129.613242,140.646918 127.822381,142.437779 125.613242,142.437779 C103.710607,142.437779 85.6132421,128.362051 85.6132421,110.437779 C85.6132421,108.22864 87.4041031,106.437779 89.6132421,106.437779 Z" id="Path" fill="#08234E" fill-rule="nonzero" transform="translate(107.613242, 124.437779) scale(-1, 1) rotate(-45.000000) translate(-107.613242, -124.437779) "></path>
    </g>
</svg>